<?xml version="1.0" encoding="UTF-8"?>
<!-- Created with Inkscape (http://www.inkscape.org/) -->
<svg width="137.03mm" height="137.12mm" version="1.1" viewBox="0 0 137.03 137.12" xmlns="http://www.w3.org/2000/svg">
 <g transform="translate(165.83 -41.921)" display="none" fill="#2b1100">
  <rect x="3.1935" y="4.9677" width="81.613" height="118.52" rx="8.5161" ry="8.1613" stroke-width=".26458"/>
  <text transform="scale(.90289 1.1076)" x="27.062382" y="86.734787" font-size="86.259px" stroke-width=".44926" xml:space="preserve"><tspan x="27.062382" y="86.734787" fill="#ffffff" font-family="'Cambria Math'" font-size="86.259px" stroke-width=".44926">S</tspan></text>
  <text transform="scale(.90289 1.1076)" x="82.756081" y="16.957014" font-size="9.2714px" stroke-width=".048288" xml:space="preserve"><tspan x="82.756081" y="16.957014" fill="#ffffff" font-family="'Cambria Math'" font-size="9.2714px" stroke-width=".048288">S</tspan></text>
  <text transform="scale(-.90289 -1.1076)" x="-14.708775" y="-99.020599" font-size="9.2714px" stroke-width=".048288" xml:space="preserve"><tspan x="-14.708775" y="-99.020599" fill="#ffffff" font-family="'Cambria Math'" font-size="9.2714px" stroke-width=".048288">S</tspan></text>
  <rect x="3.1935" y="4.9677" width="81.613" height="118.52" rx="8.5161" ry="8.1613" display="inline" stroke-width=".26458"/>
  <text transform="scale(.90289 1.1076)" x="24.282549" y="86.734787" display="inline" font-size="86.259px" stroke-width=".44926" xml:space="preserve"><tspan x="24.282549" y="86.734787" fill="#ffffff" font-family="'Cambria Math'" font-size="86.259px" stroke-width=".44926">C</tspan></text>
  <text transform="scale(.90289 1.1076)" x="82.457298" y="16.957014" display="inline" font-size="9.2714px" stroke-width=".048288" xml:space="preserve"><tspan x="82.457298" y="16.957014" fill="#ffffff" font-family="'Cambria Math'" font-size="9.2714px" stroke-width=".048288">C</tspan></text>
  <text transform="scale(-.90289 -1.1076)" x="-15.007559" y="-99.020599" display="inline" font-size="9.2714px" stroke-width=".048288" xml:space="preserve"><tspan x="-15.007559" y="-99.020599" fill="#ffffff" font-family="'Cambria Math'" font-size="9.2714px" stroke-width=".048288">C</tspan></text>
  <rect x="3.1935" y="4.9677" width="81.613" height="118.52" rx="8.5161" ry="8.1613" display="inline" stroke-width=".26458"/>
  <text transform="scale(.90289 1.1076)" x="19.396788" y="86.734787" display="inline" font-size="86.259px" stroke-width=".44926" xml:space="preserve"><tspan x="19.396788" y="86.734787" fill="#ffffff" font-family="'Cambria Math'" font-size="86.259px" stroke-width=".44926">R</tspan></text>
  <text transform="scale(.90289 1.1076)" x="81.932159" y="16.957014" display="inline" font-size="9.2714px" stroke-width=".048288" xml:space="preserve"><tspan x="81.932159" y="16.957014" fill="#ffffff" font-family="'Cambria Math'" font-size="9.2714px" stroke-width=".048288">R</tspan></text>
  <text transform="scale(-.90289 -1.1076)" x="-15.532696" y="-99.020599" display="inline" font-size="9.2714px" stroke-width=".048288" xml:space="preserve"><tspan x="-15.532696" y="-99.020599" fill="#ffffff" font-family="'Cambria Math'" font-size="9.2714px" stroke-width=".048288">R</tspan></text>
  <rect x="3.1935" y="4.9677" width="81.613" height="118.52" rx="8.5161" ry="8.1613" display="inline" stroke-width=".26458"/>
  <text transform="scale(.90289 1.1076)" x="20.681404" y="86.734787" display="inline" font-size="86.259px" stroke-width=".44926" xml:space="preserve"><tspan x="20.681404" y="86.734787" fill="#ffffff" font-family="'Cambria Math'" font-size="86.259px" stroke-width=".44926">U</tspan></text>
  <text transform="scale(.90289 1.1076)" x="82.070236" y="16.957014" display="inline" font-size="9.2714px" stroke-width=".048288" xml:space="preserve"><tspan x="82.070236" y="16.957014" fill="#ffffff" font-family="'Cambria Math'" font-size="9.2714px" stroke-width=".048288">U</tspan></text>
  <text transform="scale(-.90289 -1.1076)" x="-15.394621" y="-99.020599" display="inline" font-size="9.2714px" stroke-width=".048288" xml:space="preserve"><tspan x="-15.394621" y="-99.020599" fill="#ffffff" font-family="'Cambria Math'" font-size="9.2714px" stroke-width=".048288">U</tspan></text>
  <rect x="3.1935" y="4.9677" width="81.613" height="118.52" rx="8.5161" ry="8.1613" display="inline" stroke-width=".26458"/>
  <text transform="scale(.90289 1.1076)" x="13.647589" y="86.734787" display="inline" font-size="86.259px" stroke-width=".44926" xml:space="preserve"><tspan x="13.647589" y="86.734787" fill="#ffffff" font-family="'Cambria Math'" font-size="86.259px" stroke-width=".44926">M</tspan></text>
  <text transform="scale(.90289 1.1076)" x="81.314217" y="16.957014" display="inline" font-size="9.2714px" stroke-width=".048288" xml:space="preserve"><tspan x="81.314217" y="16.957014" fill="#ffffff" font-family="'Cambria Math'" font-size="9.2714px" stroke-width=".048288">M</tspan></text>
  <text transform="scale(-.90289 -1.1076)" x="-16.150637" y="-99.020599" display="inline" font-size="9.2714px" stroke-width=".048288" xml:space="preserve"><tspan x="-16.150637" y="-99.020599" fill="#ffffff" font-family="'Cambria Math'" font-size="9.2714px" stroke-width=".048288">M</tspan></text>
 </g>
 <g transform="translate(165.83 -41.921)">
  <rect transform="rotate(72.422)" x="35.126" y="66.881" width="81.613" height="118.52" rx="8.5161" ry="8.1613" fill="#fd5" stroke-width=".26458"/>
  <g fill="#2b1100">
   <text transform="matrix(.27268 .86073 -1.0558 .33449 0 0)" x="49.014706" y="142.63571" font-size="86.259px" stroke-width=".44926" xml:space="preserve"><tspan x="49.014706" y="142.63571" fill="#ffffff" font-family="'Cambria Math'" font-size="86.259px" stroke-width=".44926">M</tspan></text>
   <text transform="matrix(.27268 .86073 -1.0558 .33449 0 0)" x="116.68134" y="72.857948" font-size="9.2714px" stroke-width=".048288" xml:space="preserve"><tspan x="116.68134" y="72.857948" fill="#ffffff" font-family="'Cambria Math'" font-size="9.2714px" stroke-width=".048288">M</tspan></text>
   <text transform="matrix(-.27268 -.86073 1.0558 -.33449 0 0)" x="-51.517757" y="-154.92152" font-size="9.2714px" stroke-width=".048288" xml:space="preserve"><tspan x="-51.517757" y="-154.92152" fill="#ffffff" font-family="'Cambria Math'" font-size="9.2714px" stroke-width=".048288">M</tspan></text>
  </g>
  <rect transform="rotate(52.719)" x="-11.848" y="85.097" width="81.613" height="118.52" rx="8.5161" ry="8.1613" fill="#ff7f2a" stroke-width=".26458"/>
  <g fill="#2b1100">
   <text transform="matrix(.54691 .7184 -.88125 .67088 0 0)" x="4.0223112" y="159.08221" font-size="86.259px" stroke-width=".44926" xml:space="preserve"><tspan x="4.0223112" y="159.08221" fill="#ffffff" font-family="'Cambria Math'" font-size="86.259px" stroke-width=".44926">U</tspan></text>
   <text transform="matrix(.54691 .7184 -.88125 .67088 0 0)" x="65.41114" y="89.304451" font-size="9.2714px" stroke-width=".048288" xml:space="preserve"><tspan x="65.41114" y="89.304451" fill="#ffffff" font-family="'Cambria Math'" font-size="9.2714px" stroke-width=".048288">U</tspan></text>
   <text transform="matrix(-.54691 -.7184 .88125 -.67088 0 0)" x="1.2644776" y="-171.36803" font-size="9.2714px" stroke-width=".048288" xml:space="preserve"><tspan x="1.2644776" y="-171.36803" fill="#ffffff" font-family="'Cambria Math'" font-size="9.2714px" stroke-width=".048288">U</tspan></text>
  </g>
  <rect transform="rotate(28.466)" x="-73.699" y="84.251" width="81.613" height="118.52" rx="8.5161" ry="8.1613" fill="#d35f5f" stroke-width=".26458"/>
  <g fill="#2b1100">
   <text transform="matrix(.79373 .43035 -.5279 .97365 0 0)" x="-65.765656" y="158.31911" font-size="86.259px" stroke-width=".44926" xml:space="preserve"><tspan x="-65.765656" y="158.31911" fill="#ffffff" font-family="'Cambria Math'" font-size="86.259px" stroke-width=".44926">R</tspan></text>
   <text transform="matrix(.79373 .43035 -.5279 .97365 0 0)" x="-3.2302649" y="88.541344" font-size="9.2714px" stroke-width=".048288" xml:space="preserve"><tspan x="-3.2302649" y="88.541344" fill="#ffffff" font-family="'Cambria Math'" font-size="9.2714px" stroke-width=".048288">R</tspan></text>
   <text transform="matrix(-.79373 -.43035 .5279 -.97365 0 0)" x="69.629745" y="-170.60492" font-size="9.2714px" stroke-width=".048288" xml:space="preserve"><tspan x="69.629745" y="-170.60492" fill="#ffffff" font-family="'Cambria Math'" font-size="9.2714px" stroke-width=".048288">R</tspan></text>
  </g>
  <rect transform="rotate(7.5609)" x="-122.74" y="63.068" width="81.613" height="118.52" rx="8.5161" ry="8.1613" fill="#5f8dd3" stroke-width=".26458"/>
  <g fill="#2b1100">
   <text transform="matrix(.89504 .1188 -.14573 1.0979 0 0)" x="-115.19651" y="139.19279" font-size="86.259px" stroke-width=".44926" xml:space="preserve"><tspan x="-115.19651" y="139.19279" fill="#ffffff" font-family="'Cambria Math'" font-size="86.259px" stroke-width=".44926">C</tspan></text>
   <text transform="matrix(.89504 .1188 -.14573 1.0979 0 0)" x="-57.021763" y="69.415031" font-size="9.2714px" stroke-width=".048288" xml:space="preserve"><tspan x="-57.021763" y="69.415031" fill="#ffffff" font-family="'Cambria Math'" font-size="9.2714px" stroke-width=".048288">C</tspan></text>
   <text transform="matrix(-.89504 -.1188 .14573 -1.0979 0 0)" x="124.4715" y="-151.47862" font-size="9.2714px" stroke-width=".048288" xml:space="preserve"><tspan x="124.4715" y="-151.47862" fill="#ffffff" font-family="'Cambria Math'" font-size="9.2714px" stroke-width=".048288">C</tspan></text>
  </g>
  <rect transform="rotate(-11.815)" x="-158.68" y="28.957" width="81.613" height="118.52" rx="8.5161" ry="8.1613" fill="#008080" stroke-width=".26458"/>
  <g fill="#2b1100">
   <text transform="matrix(.88376 -.18487 .22677 1.0841 0 0)" x="-152.22504" y="108.3946" font-size="86.259px" stroke-width=".44926" xml:space="preserve"><tspan x="-152.22504" y="108.3946" fill="#ffffff" font-family="'Cambria Math'" font-size="86.259px" stroke-width=".44926">S</tspan></text>
   <text transform="matrix(.88376 -.18487 .22677 1.0841 0 0)" x="-96.531326" y="38.616829" font-size="9.2714px" stroke-width=".048288" xml:space="preserve"><tspan x="-96.531326" y="38.616829" fill="#ffffff" font-family="'Cambria Math'" font-size="9.2714px" stroke-width=".048288">S</tspan></text>
   <text transform="matrix(-.88376 .18487 -.22677 -1.0841 0 0)" x="164.57864" y="-120.68041" font-size="9.2714px" stroke-width=".048288" xml:space="preserve"><tspan x="164.57864" y="-120.68041" fill="#ffffff" font-family="'Cambria Math'" font-size="9.2714px" stroke-width=".048288">S</tspan></text>
  </g>
 </g>
 <g transform="translate(165.83 -41.921)" display="none">
  <g transform="rotate(-14.875 -216.84 67.667)">
   <g transform="rotate(6.8395 71.126 95.881)">
    <rect transform="rotate(-39.535)" x="-106.36" y="126.69" width="81.613" height="118.52" rx="8.5161" ry="8.1613" display="inline" fill="#007000" stroke-width=".26458"/>
    <g fill="#2b1100">
     <text transform="matrix(.69486 -.57652 .7072 .85238 0 0)" x="-94.800064" y="196.48857" display="inline" font-size="86.259px" stroke-width=".44926" xml:space="preserve"><tspan x="-94.800064" y="196.48857" fill="#ffffff" font-family="'Cambria Math'" font-size="86.259px" stroke-width=".44926">S</tspan></text>
     <text transform="matrix(.69486 -.57652 .7072 .85238 0 0)" x="-39.106369" y="126.71078" display="inline" font-size="9.2714px" stroke-width=".048288" xml:space="preserve"><tspan x="-39.106369" y="126.71078" fill="#ffffff" font-family="'Cambria Math'" font-size="9.2714px" stroke-width=".048288">S</tspan></text>
     <text transform="matrix(-.69486 .57652 -.7072 -.85238 0 0)" x="107.15367" y="-208.77438" display="inline" font-size="9.2714px" stroke-width=".048288" xml:space="preserve"><tspan x="107.15367" y="-208.77438" fill="#ffffff" font-family="'Cambria Math'" font-size="9.2714px" stroke-width=".048288">S</tspan></text>
    </g>
   </g>
  </g>
 </g>
 <g transform="translate(148.11 -44.567)" display="none">
  <g transform="rotate(-5.3134 -647.84 -217.25)">
   <g transform="rotate(1.9808 54.918 17.774)">
    <rect transform="rotate(-24.76)" x="-43.243" y="138.26" width="81.613" height="118.52" rx="8.5161" ry="8.1613" display="inline" fill="#00f" stroke-width=".26458"/>
    <g fill="#2b1100">
     <text transform="matrix(.81988 -.37815 .46387 1.0057 0 0)" x="-27.148035" y="207.08098" display="inline" font-size="86.259px" stroke-width=".44926" xml:space="preserve"><tspan x="-27.148035" y="207.08098" fill="#ffffff" font-family="'Cambria Math'" font-size="86.259px" stroke-width=".44926">C</tspan></text>
     <text transform="matrix(.81988 -.37815 .46387 1.0057 0 0)" x="31.026724" y="137.30319" display="inline" font-size="9.2714px" stroke-width=".048288" xml:space="preserve"><tspan x="31.026724" y="137.30319" fill="#ffffff" font-family="'Cambria Math'" font-size="9.2714px" stroke-width=".048288">C</tspan></text>
     <text transform="matrix(-.81988 .37815 -.46387 -1.0057 0 0)" x="36.423027" y="-219.36679" display="inline" font-size="9.2714px" stroke-width=".048288" xml:space="preserve"><tspan x="36.423027" y="-219.36679" fill="#ffffff" font-family="'Cambria Math'" font-size="9.2714px" stroke-width=".048288">C</tspan></text>
    </g>
   </g>
  </g>
 </g>
 <g transform="translate(165.83 -41.921)" display="none">
  <g transform="rotate(-1.3943 -2458.8 -687.13)">
   <rect transform="rotate(-4.4803)" x="37.022" y="123.79" width="81.613" height="118.52" rx="8.5161" ry="8.1613" display="inline" fill="#d40000" stroke-width=".26458"/>
   <g fill="#2b1100">
    <text transform="matrix(.90013 -.07053 .086517 1.1042 0 0)" x="56.863743" y="194.01816" display="inline" font-size="86.259px" stroke-width=".44926" xml:space="preserve"><tspan x="56.863743" y="194.01816" fill="#ffffff" font-family="'Cambria Math'" font-size="86.259px" stroke-width=".44926">R</tspan></text>
    <text transform="matrix(.90013 -.07053 .086517 1.1042 0 0)" x="119.39911" y="124.24039" display="inline" font-size="9.2714px" stroke-width=".048288" xml:space="preserve"><tspan x="119.39911" y="124.24039" fill="#ffffff" font-family="'Cambria Math'" font-size="9.2714px" stroke-width=".048288">R</tspan></text>
    <text transform="matrix(-.90013 .07053 -.086517 -1.1042 0 0)" x="-52.999645" y="-206.30397" display="inline" font-size="9.2714px" stroke-width=".048288" xml:space="preserve"><tspan x="-52.999645" y="-206.30397" fill="#ffffff" font-family="'Cambria Math'" font-size="9.2714px" stroke-width=".048288">R</tspan></text>
   </g>
  </g>
  <g transform="rotate(-11.931 -194.66 61.465)">
   <g transform="rotate(15.441 54.226 199.12)">
    <rect transform="rotate(7.537)" x="87.434" y="102.52" width="81.613" height="118.52" rx="8.5161" ry="8.1613" display="inline" fill="#f60" stroke-width=".26458"/>
    <text transform="matrix(.89509 .11843 -.14527 1.098 0 0)" x="113.98257" y="174.81514" display="inline" fill="#2b1100" font-size="86.259px" stroke-width=".44926" xml:space="preserve"><tspan x="113.98257" y="174.81514" fill="#ffffff" font-family="'Cambria Math'" font-size="86.259px" stroke-width=".44926">U</tspan></text>
    <text transform="matrix(.89509 .11843 -.14527 1.098 0 0)" x="175.3714" y="105.03737" display="inline" fill="#2b1100" font-size="9.2714px" stroke-width=".048288" xml:space="preserve"><tspan x="175.3714" y="105.03737" fill="#ffffff" font-family="'Cambria Math'" font-size="9.2714px" stroke-width=".048288">U</tspan></text>
    <text transform="matrix(-.89509 -.11843 .14527 -1.098 0 0)" x="-108.69579" y="-187.10095" display="inline" fill="#2b1100" font-size="9.2714px" stroke-width=".048288" xml:space="preserve"><tspan x="-108.69579" y="-187.10095" fill="#ffffff" font-family="'Cambria Math'" font-size="9.2714px" stroke-width=".048288">U</tspan></text>
   </g>
  </g>
  <g transform="rotate(8.5567 396.52 211.09)">
   <rect transform="rotate(18.804)" x="140.98" y="70.51" width="81.613" height="118.52" rx="8.5161" ry="8.1613" display="inline" fill="#fd5" stroke-width=".26458"/>
   <g fill="#2b1100">
    <text transform="matrix(.8547 .29102 -.35699 1.0484 0 0)" x="166.2509" y="145.91257" display="inline" font-size="86.259px" stroke-width=".44926" xml:space="preserve"><tspan x="166.2509" y="145.91257" fill="#ffffff" font-family="'Cambria Math'" font-size="86.259px" stroke-width=".44926">M</tspan></text>
    <text transform="matrix(.8547 .29102 -.35699 1.0484 0 0)" x="233.91753" y="76.134796" display="inline" font-size="9.2714px" stroke-width=".048288" xml:space="preserve"><tspan x="233.91753" y="76.134796" fill="#ffffff" font-family="'Cambria Math'" font-size="9.2714px" stroke-width=".048288">M</tspan></text>
    <text transform="matrix(-.8547 -.29102 .35699 -1.0484 0 0)" x="-168.75395" y="-158.19838" display="inline" font-size="9.2714px" stroke-width=".048288" xml:space="preserve"><tspan x="-168.75395" y="-158.19838" fill="#ffffff" font-family="'Cambria Math'" font-size="9.2714px" stroke-width=".048288">M</tspan></text>
   </g>
  </g>
 </g>
</svg>
